<svg width="15" height="15" viewBox="0 0 15 15" fill="none" xmlns="http://www.w3.org/2000/svg">
<path d="M4.55704 5.91504C4.40197 5.91504 4.2704 5.96912 4.16225 6.07727C4.05409 6.18542 4 6.3152 4 6.46668V8.79239C4 8.94765 4.05408 9.07911 4.16225 9.18728C4.2704 9.29543 4.40197 9.34953 4.55704 9.34953C4.712 9.34953 4.84277 9.29545 4.94925 9.18728C5.05551 9.07913 5.10879 8.94765 5.10879 8.79239V6.46668C5.10879 6.31519 5.05472 6.18542 4.94655 6.07727C4.83838 5.96912 4.70852 5.91504 4.55704 5.91504Z" fill="#0A1F8F"/>
<path d="M9.03507 3.82745L9.4191 3.11904C9.4443 3.07214 9.43534 3.03617 9.39211 3.01088C9.3452 2.98908 9.30915 3.00013 9.28396 3.04325L8.89457 3.75733C8.55193 3.60584 8.18954 3.52996 7.80739 3.52996C7.42515 3.52996 7.06273 3.60586 6.72022 3.75733L6.33081 3.04325C6.30551 3.00013 6.26946 2.98917 6.22266 3.01088C6.17934 3.03629 6.17037 3.07214 6.19568 3.11904L6.57971 3.82745C6.19031 4.02604 5.88017 4.30261 5.64941 4.65776C5.41865 5.01311 5.30322 5.40143 5.30322 5.8234H10.3061C10.3061 5.40152 10.1907 5.01319 9.95993 4.65776C9.72915 4.30261 9.4208 4.02604 9.03507 3.82745ZM6.81483 4.85786C6.7733 4.89949 6.7237 4.9202 6.66605 4.9202C6.60827 4.9202 6.55968 4.89949 6.52004 4.85786C6.4804 4.81643 6.46058 4.76702 6.46058 4.70917C6.46058 4.65151 6.4804 4.60201 6.52004 4.56048C6.55968 4.51904 6.60839 4.49833 6.66605 4.49833C6.7237 4.49833 6.7733 4.51904 6.81483 4.56048C6.85627 4.6021 6.87708 4.65151 6.87708 4.70917C6.87697 4.76692 6.85617 4.81643 6.81483 4.85786ZM9.09452 4.85786C9.0548 4.89949 9.00609 4.9202 8.94853 4.9202C8.89074 4.9202 8.84116 4.89949 8.79971 4.85786C8.7582 4.81643 8.73748 4.76702 8.73748 4.70917C8.73748 4.65151 8.7582 4.60201 8.79971 4.56048C8.84116 4.51904 8.89074 4.49833 8.94853 4.49833C9.00619 4.49833 9.05478 4.51904 9.09452 4.56048C9.1342 4.6021 9.15398 4.65151 9.15398 4.70917C9.15398 4.76692 9.13418 4.81643 9.09452 4.85786Z" fill="#0A1F8F"/>
<path d="M5.3252 9.62027C5.3252 9.78629 5.38285 9.92683 5.49818 10.0422C5.61361 10.1575 5.75415 10.2151 5.92006 10.2151H6.32032L6.3258 11.443C6.3258 11.5981 6.37988 11.7298 6.48803 11.8379C6.59619 11.9461 6.72607 12.0002 6.87744 12.0002C7.03241 12.0002 7.16407 11.9461 7.27224 11.8379C7.38041 11.7298 7.43448 11.5981 7.43448 11.443V10.2153H8.18085V11.443C8.18085 11.5981 8.23491 11.7298 8.34308 11.8379C8.45125 11.9461 8.58279 12.0002 8.73788 12.0002C8.89285 12.0002 9.0245 11.9461 9.13267 11.8379C9.24084 11.7298 9.2949 11.5981 9.2949 11.443V10.2153H9.70057C9.8628 10.2153 10.0015 10.1576 10.1171 10.0423C10.2324 9.92692 10.2901 9.78639 10.2901 9.62038V6.01807H5.3252V9.62027Z" fill="#0A1F8F"/>
<path d="M11.058 5.91504C10.9065 5.91504 10.7767 5.96832 10.6686 6.07458C10.5604 6.18105 10.5063 6.31182 10.5063 6.46668V8.79239C10.5063 8.94765 10.5604 9.07911 10.6686 9.18728C10.7767 9.29545 10.9066 9.34953 11.058 9.34953C11.213 9.34953 11.3446 9.29545 11.4528 9.18728C11.561 9.07911 11.615 8.94765 11.615 8.79239V6.46668C11.615 6.3118 11.561 6.18105 11.4528 6.07458C11.3446 5.96832 11.213 5.91504 11.058 5.91504Z" fill="#0A1F8F"/>
<rect x="0.5" y="0.5" width="14" height="14" rx="4.5" stroke="#0A1F8F"/>
</svg>
