<svg width="18" height="30" viewBox="0 0 18 30" fill="none" xmlns="http://www.w3.org/2000/svg">
<path d="M17.3443 14.3085L3.21338 0.300804C3.0117 0.100549 2.7791 0 2.51624 0C2.2537 0 2.02143 0.100549 1.81932 0.300804L0.303007 1.80377C0.100896 2.00413 0 2.23429 0 2.49519C0 2.75609 0.100896 2.98625 0.303007 3.18661L12.2201 15.0002L0.303113 26.8141C0.101002 27.0145 0.000106148 27.2451 0.000106148 27.5052C0.000106148 27.766 0.101002 27.9966 0.303113 28.197L1.81942 29.6995C2.02143 29.9001 2.2537 30 2.51635 30C2.77953 30 3.0118 29.8999 3.21338 29.6995L17.3443 15.6917C17.5463 15.4915 17.6471 15.2608 17.6471 15.0003C17.6471 14.7398 17.5463 14.5093 17.3443 14.3085Z" fill="#686868"/>
</svg>
