<svg width="25" height="25" viewBox="0 0 25 25" fill="none" xmlns="http://www.w3.org/2000/svg">
<path d="M14.958 8.89191L17.6703 11.6175L10.8047 18.5167L8.09394 15.7911L14.958 8.89191ZM19.7284 8.23457L18.5188 7.01906C18.0514 6.54931 17.2923 6.54931 16.8232 7.01906L15.6646 8.18339L18.3769 10.909L19.7284 9.55085C20.091 9.18648 20.091 8.59891 19.7284 8.23457ZM6.67454 19.6221C6.62518 19.8453 6.82575 20.0454 7.04792 19.9911L10.0703 19.2547L7.35956 16.5291L6.67454 19.6221Z" fill="black"/>
<path d="M12.5 0C5.59872 0 0 5.59872 0 12.5C0 19.4013 5.59872 25 12.5 25C19.4013 25 25 19.4013 25 12.5C25 5.59872 19.4013 0 12.5 0ZM12.5 23.3547C6.5128 23.3547 1.64534 18.4872 1.64534 12.5C1.64534 6.5128 6.5128 1.64534 12.5 1.64534C18.4872 1.64534 23.3547 6.5128 23.3547 12.5C23.3547 18.4872 18.4872 23.3547 12.5 23.3547Z" fill="black"/>
</svg>
