<svg width="27" height="30" viewBox="0 0 27 30" fill="none" xmlns="http://www.w3.org/2000/svg">
<path d="M26.8016 5.21641C26.7337 4.45554 26.1065 3.88175 25.3426 3.88175H21.5529V3.32326H21.6267C22.1678 3.32326 22.6081 2.883 22.6081 2.34191V0.98135C22.6081 0.440257 22.1678 0 21.6267 0H10.4726C10.2299 0 10.0332 0.196692 10.0332 0.439437C10.0332 0.682182 10.2299 0.878874 10.4726 0.878874H21.6267C21.6832 0.878874 21.7292 0.92481 21.7292 0.98135V2.34191C21.7292 2.39845 21.6832 2.44438 21.6267 2.44438H5.19724C5.1407 2.44438 5.0947 2.39845 5.0947 2.34191V0.98135C5.0947 0.92481 5.1407 0.878874 5.19724 0.878874H8.41222C8.65491 0.878874 8.85166 0.682182 8.85166 0.439437C8.85166 0.196692 8.65491 0 8.41222 0H5.19724C4.65609 0 4.21583 0.440257 4.21583 0.98135V2.34191C4.21583 2.883 4.65609 3.32326 5.19724 3.32326H5.27101V3.88175H1.4813C0.717387 3.88175 0.0901638 4.45554 0.0223148 5.21641C0.0134089 5.3159 -0.184045 7.68434 0.785822 10.3075C1.67319 12.7075 3.70901 15.772 8.37349 16.9746C9.1244 17.5679 9.98183 18.0322 10.9121 18.3331L11.1333 18.6982C11.5513 19.3883 11.7723 20.2042 11.7723 21.0576C11.7723 21.5789 11.6892 22.0881 11.5254 22.5711L11.2182 23.4762H10.1963C9.14766 23.4762 8.29445 24.3294 8.29445 25.3782V26.2987H6.69513C6.2438 26.2987 5.87661 26.666 5.87661 27.1173V29.1815C5.87661 29.6328 6.2438 30 6.69513 30H20.1288C20.5802 30 20.9474 29.6328 20.9474 29.1815V27.1173C20.9474 26.666 20.5802 26.2987 20.1288 26.2987H18.5295V25.3782C18.5295 24.3294 17.6763 23.4762 16.6276 23.4762H15.6057L15.2986 22.5711C15.1347 22.0882 15.0516 21.5789 15.0516 21.0576C15.0516 20.2043 15.2726 19.3884 15.6906 18.6982L15.9118 18.3331C16.8421 18.0322 17.6995 17.568 18.4504 16.9746C23.1149 15.772 25.1507 12.7075 26.0381 10.3075C27.008 7.68434 26.8105 5.31596 26.8016 5.21641ZM5.43372 12.2078C4.61437 11.4407 3.98668 10.4891 3.55738 9.35497C3.25909 8.56691 3.06386 7.7113 2.97697 6.81133H5.27101V10.5853C5.27101 11.1408 5.3272 11.6833 5.43372 12.2078ZM1.61021 10.0028C0.708188 7.56312 0.889587 5.38597 0.897732 5.29451C0.924859 4.99019 1.17575 4.76068 1.4813 4.76068H5.27101V5.93251H2.94059C2.70317 5.93251 2.47537 6.03312 2.31553 6.20854C2.15552 6.3842 2.07642 6.62067 2.09851 6.85738C2.19102 7.84893 2.40529 8.79395 2.7354 9.66615C3.38735 11.3886 4.44264 12.7336 5.88716 13.6911C6.17138 14.3771 6.54678 15.0161 6.99829 15.5929C3.81454 14.2733 2.31512 11.9092 1.61021 10.0028ZM20.0685 27.1776V29.1211H6.75542V27.1776H20.0685ZM16.6276 24.3551C17.1917 24.3551 17.6506 24.8141 17.6506 25.3782V26.2987H9.17332V25.3782C9.17332 24.8141 9.63227 24.3551 10.1963 24.3551H16.6276ZM14.4664 22.8535L14.6776 23.4762H12.1462L12.3575 22.8535C12.5523 22.2793 12.6511 21.6751 12.6511 21.0576C12.6511 20.1932 12.4579 19.3587 12.0905 18.6185C12.5208 18.689 12.962 18.7263 13.412 18.7263C13.8618 18.7263 14.3031 18.689 14.7333 18.6185C14.3659 19.3587 14.1728 20.1932 14.1728 21.0576C14.1728 21.6752 14.2716 22.2794 14.4664 22.8535ZM13.412 17.8473C9.40763 17.8473 6.14988 14.5896 6.14988 10.5853V3.32326H20.674V10.5853C20.674 14.5897 17.4163 17.8473 13.412 17.8473ZM25.2138 10.0028C24.5088 11.9093 23.0094 14.2736 19.8254 15.5932C20.2778 15.0153 20.6538 14.3751 20.9382 13.6877C22.1785 12.8641 23.1338 11.7548 23.7915 10.3658C23.8954 10.1465 23.8018 9.88446 23.5825 9.78063C23.3632 9.67681 23.1012 9.77032 22.9972 9.98969C22.59 10.8496 22.053 11.5905 21.3898 12.2105C21.4967 11.6852 21.553 11.1418 21.553 10.5854V6.81139H23.8471C23.8033 7.26354 23.7307 7.71194 23.631 8.14481C23.5766 8.38135 23.7242 8.61724 23.9607 8.67161C24.197 8.72634 24.4331 8.57851 24.4875 8.34198C24.5985 7.85983 24.6785 7.36033 24.7255 6.85738C24.7476 6.62067 24.6685 6.3842 24.5085 6.20854C24.3487 6.03312 24.1209 5.93251 23.8834 5.93251H21.553V4.76068H25.3427C25.6483 4.76068 25.8992 4.99019 25.9263 5.29457C25.9343 5.38597 26.1157 7.56312 25.2138 10.0028Z" fill="black"/>
<path d="M16.3018 8.53465L15.0417 8.35156C14.9868 8.34353 14.9394 8.30908 14.9148 8.25939L14.3513 7.11756C14.1736 6.75745 13.8137 6.53375 13.4121 6.53375C13.0106 6.53375 12.6507 6.75745 12.473 7.11756L11.9094 8.25939C11.8849 8.30914 11.8375 8.34359 11.7826 8.35156L10.5225 8.53465C10.1251 8.59237 9.80114 8.86546 9.67704 9.24742C9.55295 9.62938 9.65449 10.0408 9.94205 10.3211L10.8539 11.2098C10.8936 11.2486 10.9117 11.3043 10.9023 11.359L10.687 12.614C10.6191 13.0098 10.7788 13.4023 11.1037 13.6383C11.4285 13.8743 11.8512 13.9049 12.2067 13.7181L13.3337 13.1255C13.3828 13.0997 13.4414 13.0997 13.4905 13.1255L14.6176 13.7181C14.7722 13.7993 14.9395 13.8395 15.1059 13.8395C15.3222 13.8395 15.537 13.7717 15.7206 13.6383C16.0455 13.4022 16.2051 13.0097 16.1372 12.614L15.922 11.3589C15.9126 11.3042 15.9307 11.2485 15.9704 11.2098L16.8823 10.321C17.1699 10.0407 17.2714 9.62926 17.1473 9.24736C17.0232 8.86546 16.6991 8.59237 16.3018 8.53465ZM16.2688 9.69172L15.3569 10.5806C15.1101 10.8212 14.9975 11.1677 15.0557 11.5075L15.271 12.7626C15.2864 12.8524 15.2356 12.9044 15.2039 12.9274C15.1723 12.9504 15.1072 12.9828 15.0265 12.9402L13.8994 12.3477C13.7469 12.2675 13.5795 12.2273 13.4121 12.2273C13.2447 12.2273 13.0773 12.2675 12.9247 12.3477L11.7977 12.9402C11.7171 12.9827 11.6519 12.9504 11.6202 12.9274C11.5886 12.9044 11.5379 12.8524 11.5532 12.7626L11.7685 11.5075C11.8268 11.1677 11.7142 10.8212 11.4673 10.5805L10.5554 9.69178C10.4902 9.62815 10.5007 9.55626 10.5128 9.51905C10.5249 9.48185 10.5586 9.41751 10.6488 9.40439L11.9089 9.22129C12.2501 9.17166 12.5449 8.95751 12.6974 8.64838L13.261 7.50655C13.3013 7.42481 13.3729 7.41263 13.412 7.41263C13.4511 7.41263 13.5228 7.42481 13.5631 7.50655L14.1266 8.64838C14.2792 8.95751 14.574 9.17172 14.9152 9.22129L16.1753 9.40439C16.2655 9.41751 16.2992 9.48185 16.3113 9.51905C16.3235 9.55626 16.334 9.62815 16.2688 9.69172Z" fill="black"/>
</svg>
