<svg width="15" height="15" viewBox="0 0 15 15" fill="none" xmlns="http://www.w3.org/2000/svg">
<path d="M9.19799 2.6665C8.71818 2.69969 8.15737 3.00681 7.83056 3.40675C7.53243 3.76956 7.28719 4.30843 7.38281 4.83211C7.90706 4.84843 8.44874 4.53399 8.76261 4.12731C9.05624 3.74875 9.27842 3.21325 9.19799 2.6665Z" fill="#0A1F8F"/>
<path d="M11.094 5.68588C10.6333 5.1082 9.98587 4.77295 9.37443 4.77295C8.56725 4.77295 8.22581 5.15938 7.66501 5.15938C7.08676 5.15938 6.64745 4.77407 5.94939 4.77407C5.26371 4.77407 4.53359 5.19313 4.07065 5.90975C3.41985 6.91887 3.53122 8.81617 4.5859 10.4322C4.96334 11.0105 5.46733 11.6607 6.12658 11.6663C6.71326 11.672 6.87864 11.29 7.67344 11.2861C8.46825 11.2816 8.619 11.6714 9.20456 11.6652C9.86437 11.6602 10.3959 10.9396 10.7734 10.3614C11.0439 9.94679 11.1446 9.7381 11.3544 9.27011C9.82837 8.68905 9.58368 6.51894 11.094 5.68588Z" fill="#0A1F8F"/>
<rect x="0.5" y="0.5" width="14" height="14" rx="4.5" stroke="#0A1F8F"/>
</svg>
