<svg width="49" height="50" viewBox="0 0 49 50" fill="none" xmlns="http://www.w3.org/2000/svg">
<path d="M16.0228 11.9121C17.1919 11.9121 18.1446 10.9523 18.1446 9.77429C18.1446 8.59631 17.1919 7.63647 16.0228 7.63647C14.8536 7.63647 13.9009 8.59631 13.9009 9.77429C13.9009 10.9523 14.8536 11.9121 16.0228 11.9121Z" fill="#59A7DC"/>
<path d="M32.6942 6.19641C31.2219 6.19641 30.0527 7.37439 30.0527 8.85777C30.0527 10.3412 31.2219 11.5191 32.6942 11.5191C34.1666 11.5191 35.3358 10.3412 35.3358 8.85777C35.3358 7.37439 34.1666 6.19641 32.6942 6.19641Z" fill="#59A7DC"/>
<path d="M3.55074 23.3423C4.67663 23.3423 5.6293 22.4261 5.6293 21.2481C5.6293 20.1138 4.71993 19.1539 3.55074 19.1539C2.42484 19.1539 1.47217 20.0701 1.47217 21.2481C1.51547 22.4261 2.42484 23.3423 3.55074 23.3423Z" fill="#59A7DC"/>
<path d="M25.7223 49.389C14.7665 49.389 5.88928 40.4451 5.88928 29.407C5.88928 28.6216 5.93258 27.8363 6.01919 27.051C8.6174 26.0039 10.7393 24.0406 11.9951 21.5538C12.0817 21.3793 12.1683 21.0739 12.1683 20.8993C12.1683 20.2885 11.6919 19.8959 11.0857 19.8959C10.6094 19.8959 10.2196 20.2013 10.0464 20.6376C9.13704 23.1244 6.75535 24.8696 3.98392 24.8696C2.4683 24.8696 1.08259 24.346 0 23.4734C0.0433035 24.0842 0 24.695 0 25.3495C0 25.6549 0 25.9603 0 26.2657V26.3093C0 26.4838 0 26.6583 0.0433035 26.8765C0.0433035 26.9201 0.0433035 26.9637 0.0433035 26.9637C0.0433035 27.1383 0.086607 27.2692 0.086607 27.4437C0.086607 27.4873 0.086607 27.5309 0.086607 27.5746C0.086607 27.6182 0.086607 27.6618 0.086607 27.7054C1.2558 40.1833 11.6919 49.9562 24.3799 49.9562C25.116 49.9562 25.8522 49.9125 26.5884 49.8689C26.5017 49.6944 26.4151 49.5199 26.3285 49.389C26.1553 49.3454 25.9388 49.389 25.7223 49.389Z" fill="#59A7DC"/>
<path d="M2.68437 18.0199C3.0308 17.9326 3.20402 17.1473 3.46384 16.4929C3.59375 16.2748 3.81026 16.1439 4.2 16.2748C4.54642 16.4056 7.05803 17.889 10.1326 20.5067C10.1326 20.5067 10.1326 20.5504 10.0893 20.5504L10.9553 20.2886L10.8687 19.8959C9.30981 18.6307 6.23526 16.3184 3.72366 15.5331C3.0741 15.3585 2.07812 16.1875 1.90491 16.3184C1.8183 16.4929 1.29866 16.8856 1.60179 17.4527C1.90491 17.9763 2.33795 18.1072 2.68437 18.0199Z" fill="#59A7DC"/>
<path d="M27.8874 10.6903C27.8874 8.77066 26.3284 7.24365 24.4664 7.24365C22.561 7.24365 21.0454 8.81429 21.0454 10.6903C21.0454 12.5664 22.6043 14.137 24.4664 14.137C26.3284 14.137 27.8874 12.5664 27.8874 10.6903Z" fill="#5EA72A"/>
<path d="M23.8522 4.53496C24.6808 3.7001 24.6808 2.34653 23.8522 1.51167C23.0236 0.676807 21.6801 0.676808 20.8514 1.51167C20.0228 2.34653 20.0228 3.7001 20.8514 4.53496C21.6801 5.36982 23.0236 5.36982 23.8522 4.53496Z" fill="#5EA72A"/>
<path d="M7.62101 8.81384C6.14869 8.81384 4.97949 9.99182 4.97949 11.4752C4.97949 12.9586 6.14869 14.1366 7.62101 14.1366C9.09333 14.1366 10.2625 12.9586 10.2625 11.4752C10.2625 10.0354 9.05002 8.81384 7.62101 8.81384Z" fill="#5EA72A"/>
<path d="M37.3702 7.4617C38.1064 7.4617 38.7127 6.8509 38.7127 6.10921C38.7127 5.36752 38.1064 4.75671 37.3702 4.75671C36.6341 4.75671 36.0278 5.36752 36.0278 6.10921C36.0278 6.8509 36.6341 7.4617 37.3702 7.4617Z" fill="#5EA72A"/>
<path d="M41.0515 14.1371C39.6225 14.1371 38.4966 15.2714 38.4966 16.7112C38.4966 18.1509 39.6225 19.2853 41.0515 19.2853C42.4805 19.2853 43.6064 18.1509 43.6064 16.7112C43.6064 15.2714 42.4372 14.1371 41.0515 14.1371Z" fill="#5EA72A"/>
<path d="M48.3269 20.4197C48.1104 19.3726 47.201 18.5436 46.0751 18.5436C45.4256 18.5436 44.8193 18.8054 44.3863 19.2853C43.3037 20.7251 41.6149 21.6413 39.7095 21.6413C37.1979 21.6413 35.0327 20.027 34.21 17.7583C34.1234 17.4093 33.9068 17.1039 33.5604 16.8857C37.0247 12.8283 40.1858 10.6032 40.6189 10.385C41.0519 10.1669 41.355 10.2542 41.5716 10.5159C42.0479 11.2576 42.3943 12.1302 42.7841 12.2175C43.2171 12.2611 43.6934 12.0429 43.9532 11.3449C44.2131 10.6468 43.5635 10.2978 43.347 10.1233C43.1305 9.99238 41.8314 9.16344 41.0519 9.51247C37.7175 11.1704 33.8635 15.446 32.6943 16.7549C32.0448 16.8421 31.5252 17.4093 31.5252 18.1074C31.5252 18.3255 31.5685 18.5436 31.6551 18.7182C31.6551 18.7182 31.6551 18.7182 31.6551 18.7618C31.6551 18.8054 31.6984 18.8054 31.6984 18.849C33.4305 22.1212 36.6783 24.4335 40.5323 24.8262C41.5283 27.0076 42.0479 29.4509 42.0479 31.9813C42.0479 41.6233 34.2966 49.4765 24.6832 49.4765C24.2935 49.4765 23.9037 49.4765 23.4707 49.4329C23.6439 49.6074 23.8171 49.8255 23.947 50.0001C24.1203 50.0001 24.2502 50.0001 24.4234 50.0001C37.8908 50.0001 48.8465 39.0056 48.8465 25.3934C48.8465 23.0374 48.3269 20.4197 48.3269 20.4197Z" fill="#5EA72A"/>
<path d="M30.3124 4.97458C31.2217 4.97458 32.0012 4.23289 32.0012 3.27306C32.0012 2.35685 31.265 1.57153 30.3124 1.57153C29.403 1.57153 28.6235 2.31322 28.6235 3.27306C28.6235 4.18927 29.403 4.97458 30.3124 4.97458Z" fill="#F26F21"/>
<path d="M13.9436 5.36714C13.9436 4.62545 13.3374 4.01465 12.6012 4.01465C11.865 4.01465 11.2588 4.62545 11.2588 5.36714C11.2588 6.10883 11.865 6.71964 12.6012 6.71964C13.3807 6.71964 13.9436 6.10883 13.9436 5.36714Z" fill="#F26F21"/>
<path d="M19.7024 23.7785C21.1314 23.7785 22.2573 22.6441 22.2573 21.2044C22.2573 19.7646 21.1314 18.6302 19.7024 18.6302C18.2734 18.6302 17.1475 19.7646 17.1475 21.2044C17.1475 22.6441 18.3167 23.7785 19.7024 23.7785Z" fill="#F26F21"/>
<path d="M29.749 27.2253C28.6231 27.2253 27.6704 28.1415 27.6704 29.3195C27.6704 30.4539 28.5798 31.4137 29.749 31.4137C30.8749 31.4137 31.8275 30.4975 31.8275 29.3195C31.8275 28.1852 30.9182 27.2253 29.749 27.2253Z" fill="#F26F21"/>
<path d="M36.2454 32.1552C36.2454 32.0244 36.2021 31.8935 36.1587 31.7626C36.1587 31.719 36.1154 31.6317 36.1154 31.6317C35.8123 30.6719 35.0329 30.0611 33.8637 30.0174C32.5213 29.9302 31.7418 31.3263 31.7418 31.3263C30.3128 33.5514 27.8012 35.0348 24.9864 35.0348C24.2936 35.0348 23.6007 34.9475 22.9512 34.773C27.1516 26.8762 30.8324 24.5202 30.8324 24.5202C30.8324 24.5202 31.2655 24.9129 31.6119 24.9565C32.3913 25.0874 33.1708 24.5638 32.911 24.2584C32.3913 23.7349 31.2222 23.3858 30.8757 23.6476C25.7659 27.6615 22.6914 33.4205 21.9119 34.9475C21.6954 35.122 21.5655 35.4274 21.5655 35.7328C21.5655 36.1691 21.8253 36.5181 22.1717 36.6926C23.211 37.1726 24.3369 37.4343 25.5927 37.4343C26.8052 37.4343 27.9311 37.1726 28.9271 36.6926C28.9271 36.6926 29.3601 36.4745 29.7931 36.4745C30.8324 36.4745 31.6985 37.3471 31.6985 38.3942C31.6985 38.4378 31.6119 41.7972 28.9271 45.2875H28.8838C27.628 46.8582 25.7226 47.8616 23.6007 47.8616C21.1757 47.8616 19.0539 46.5964 17.8847 44.6331C16.8887 42.7571 16.3257 40.5756 16.3257 38.3069C16.3257 33.1587 19.1838 28.6649 23.4275 26.3962C25.7226 25.3928 27.2815 23.0368 27.5414 20.4191C27.5847 19.9828 27.628 17.8886 26.0257 18.0195C25.9824 18.0195 25.8958 18.0195 25.8525 18.0195C23.9039 16.9724 19.5302 14.8346 15.0699 14.8346C14.5936 14.8346 13.8141 15.7508 13.6842 16.4489C13.5976 16.8415 14.5503 16.8415 15.1566 16.318C15.4597 16.0562 15.5896 15.5327 15.5896 15.5327C15.5896 15.5327 17.8847 14.6601 25.203 18.5867C25.0731 18.7612 25.0297 19.1102 25.0297 19.1102C24.7699 22.3388 22.1284 24.8692 18.8373 24.8692C18.4909 24.8692 18.1878 24.8256 17.8847 24.782C17.6682 24.7383 17.4083 24.6947 17.1485 24.6947C16.1525 24.6947 15.2432 25.1746 14.7235 25.96H14.6802C13.1213 28.5777 12.2119 31.6753 12.2119 34.9475C12.2119 39.7903 14.1606 44.1968 17.365 47.3817L17.8414 47.7744C17.8414 47.7744 20.3097 49.9994 23.6873 49.9122C25.0297 49.8686 26.1989 49.5632 27.1083 49.2141C27.2815 49.1705 27.4114 49.0832 27.5414 48.996C27.628 48.9524 27.6713 48.9524 27.7579 48.9087C27.7579 48.9087 27.8012 48.9087 27.8012 48.8651C27.8445 48.8215 27.9311 48.8215 27.9744 48.7778H28.0177C28.061 48.7342 28.1043 48.7342 28.1476 48.6906C33.0842 46.0728 36.4619 40.8374 36.4619 34.8166C36.4619 33.944 36.4186 33.0278 36.2454 32.1552Z" fill="#F26F21"/>
</svg>
