<svg width="216" height="40" viewBox="0 0 216 40" fill="none" xmlns="http://www.w3.org/2000/svg">
<path d="M0 10.2786H5.21302L10.8189 25.3283L16.4248 10.2786H21.5169L12.9041 31.6444H8.61282L0 10.2786Z" fill="#262D48"/>
<path d="M24.3486 21.0225V20.962C24.3486 14.8877 29.0932 9.90137 35.5906 9.90137C39.4588 9.90137 41.7858 10.944 44.0221 12.8328L41.0454 16.3988C39.3833 15.0237 37.9176 14.2229 35.4395 14.2229C32.0095 14.2229 29.2746 17.2449 29.2746 20.8865V20.9469C29.2746 24.8605 31.9642 27.7314 35.7719 27.7314C37.4945 27.7314 39.0206 27.3083 40.2144 26.447V23.3948H37.1923L35.4546 19.3301H44.7776V28.6229C42.5715 30.4815 39.5344 32.0076 35.6208 32.0076C28.9421 32.0227 24.3486 27.3386 24.3486 21.0225Z" fill="#262D48"/>
<path d="M70.2233 31.6449L61.0967 10.2639H56.609L47.4824 31.6449H52.2875L54.2518 26.8549L63.333 26.8851L65.2822 31.66H70.2233V31.6449ZM55.9441 22.6996L58.8 15.764L61.6558 22.6996H55.9441Z" fill="#262D48"/>
<path d="M133.471 14.615H126.943V10.2783H144.713V14.615H138.185V31.6442H133.471V14.615Z" fill="#262D48"/>
<path d="M173.121 22.4874V10.2783H177.835V22.3665C177.835 25.8418 179.588 27.6551 182.459 27.6551C185.345 27.6551 187.082 25.9174 187.082 22.5176V10.2783H191.797V22.3363C191.797 28.8034 188.155 31.9917 182.383 31.9917C176.641 31.9917 173.121 28.7732 173.121 22.4874Z" fill="#262D48"/>
<path d="M209.928 24.0135C212.663 23.0011 214.522 20.8404 214.522 17.3801V17.3197C214.522 15.31 213.872 13.6177 212.678 12.4391C211.273 11.0338 209.158 10.2783 206.423 10.2783H196.616V31.6442H201.331V14.5243H206.015C208.312 14.5243 209.717 15.5669 209.717 17.5766V17.637C209.717 19.4351 208.402 20.659 206.105 20.659H202.192L209.626 31.6593H215.141L209.928 24.0135Z" fill="#262D48"/>
<path d="M146.466 21.0225V20.962C146.466 14.8877 151.271 9.90137 157.889 9.90137C164.507 9.90137 169.252 14.8122 169.252 20.9016V20.962C169.252 27.0363 164.447 32.0227 157.829 32.0227C151.21 32.0227 146.466 27.0968 146.466 21.0225ZM164.326 21.0225V20.962C164.326 17.2903 161.636 14.238 157.829 14.238C154.021 14.238 151.392 17.2298 151.392 20.9016V20.962C151.392 24.6338 154.081 27.6861 157.889 27.6861C161.682 27.6861 164.326 24.6943 164.326 21.0225Z" fill="#262D48"/>
<path fill-rule="evenodd" clip-rule="evenodd" d="M100.485 0C105.034 0.0769914 109.147 1.41793 112.733 4.26019C115.447 6.40953 117.474 9.08499 118.847 12.2609C119.502 13.7686 119.957 15.3405 120.221 16.9638C120.464 18.4651 120.548 19.9729 120.432 21.487C120.169 24.9516 119.053 28.1275 117.122 31.0147C115.011 34.1649 112.284 36.6415 108.89 38.3546C108.21 38.6946 107.511 38.9769 106.753 39.0988C106.644 39.1181 106.529 39.1245 106.401 39.1245C106.458 39.0154 106.555 38.9641 106.632 38.8999C107.613 38.0787 108.627 37.2895 109.583 36.4298C110.718 35.4032 111.617 34.1906 112.361 32.8625C113.484 30.8736 114.299 28.7691 114.773 26.5364C114.985 25.5355 115.126 24.5282 115.21 23.508C115.274 22.6611 115.306 21.8142 115.267 20.9609C115.184 19.0554 114.927 17.1819 114.151 15.4111C113.894 14.8208 113.574 14.2691 113.118 13.8071C112.265 12.9474 111.277 12.9153 110.359 13.7109C109.84 14.16 109.442 14.7054 109.102 15.302C108.293 16.7392 107.511 18.1892 106.67 19.6136C105.336 21.8527 103.943 24.0534 102.326 26.1001C101.505 27.1395 100.633 28.1404 99.6061 28.9937C98.9516 29.539 98.2587 30.0202 97.4118 30.2191C96.597 30.4116 95.9105 30.187 95.3395 29.5904C94.8518 29.0835 94.4733 28.4997 94.0883 27.9158C92.7987 25.9782 91.4963 24.047 90.072 22.1992C87.6339 19.0425 84.9264 16.1361 81.9879 13.4414C80.7624 12.3186 79.5241 11.2151 78.2153 10.1949C76.9321 9.20047 75.604 8.25091 74.3015 7.2821C74.2695 7.26286 74.2438 7.23719 74.1925 7.1987C74.2887 7.17945 74.3529 7.22436 74.417 7.24361C77.0283 8.0841 79.5241 9.20689 81.9429 10.4901C85.3113 12.2737 88.4936 14.3461 91.4129 16.8098C92.51 17.7401 93.4724 18.7987 94.4861 19.8189C95.2689 20.608 96.0452 21.41 96.8215 22.1992C96.8344 22.212 96.8472 22.2184 96.86 22.2313C96.8921 22.1479 96.828 22.1094 96.7959 22.058C94.6786 19.158 92.4779 16.3286 90.0335 13.6916C87.8841 11.3755 85.5295 9.27105 83.0144 7.3591C80.1721 5.229 77.1887 3.2978 74.1861 1.39868C74.1219 1.35377 74.0513 1.30885 74 1.23186C74.3785 1.3281 74.7571 1.42434 75.1356 1.527C78.921 2.5728 82.5589 4.01639 86.0941 5.71661C86.2416 5.78719 86.325 5.77436 86.4469 5.65887C87.5377 4.58741 88.731 3.63784 90.0527 2.8551C92.0673 1.65532 94.2167 0.80841 96.52 0.372125C97.4375 0.198894 98.3678 0.0834074 99.2981 0.0384957C99.3302 0.0384957 99.3751 0.0513276 99.3943 0H100.485V0Z" fill="#262D48"/>
<path fill-rule="evenodd" clip-rule="evenodd" d="M75.7132 13.608C76.4061 13.8198 77.0541 14.1277 77.6893 14.4614C79.274 15.2954 80.7048 16.3541 82.065 17.5153C84.1181 19.2733 85.9594 21.243 87.6725 23.3282C90.0656 26.2475 92.1957 29.3464 94.0435 32.6377C95.2369 34.7678 96.3084 36.9493 97.1039 39.2654C97.1681 39.4643 97.2194 39.6632 97.2964 39.8557C97.3478 39.984 97.3093 40.0097 97.1874 39.9968C96.5778 39.9263 95.9747 39.8172 95.3716 39.6889C92.6962 39.1114 90.2196 38.0528 87.9869 36.4617C84.6762 34.0942 82.3152 30.9888 80.8652 27.197C80.3647 25.8882 80.0119 24.5408 79.8001 23.1614C79.6205 22.0258 79.5242 20.8773 79.5499 19.7289C79.5627 19.0552 79.6076 18.3751 79.7231 17.7078C79.7552 17.5346 79.7039 17.4063 79.5948 17.278C78.9917 16.5594 78.3116 15.9114 77.6187 15.2826C77.0156 14.7372 76.3997 14.2111 75.7645 13.7107C75.7388 13.685 75.7132 13.6594 75.6875 13.6337C75.7003 13.6209 75.7067 13.6144 75.7132 13.608Z" fill="#262D48"/>
</svg>
