<svg width="21" height="15" viewBox="0 0 21 15" fill="none" xmlns="http://www.w3.org/2000/svg">
<path d="M18.1848 0H1.84307C0.826814 0 0 0.826775 0 1.84432C0 2.86058 0.826814 3.68739 1.84307 3.68739H18.1848C19.201 3.68739 20.0279 2.86058 20.0279 1.84432C20.0279 0.826775 19.201 0 18.1848 0Z" fill="#0A1F8F"/>
<path d="M18.1848 5.65625H1.84307C0.826814 5.65625 0 6.48302 0 7.50057C0 8.51683 0.826814 9.34364 1.84307 9.34364H18.1848C19.201 9.34364 20.0279 8.51683 20.0279 7.50057C20.0279 6.48302 19.201 5.65625 18.1848 5.65625Z" fill="#0A1F8F"/>
<path d="M18.1848 11.3125H1.84307C0.826814 11.3125 0 12.1393 0 13.1568C0 14.1731 0.826814 14.9999 1.84307 14.9999H18.1848C19.201 14.9999 20.0279 14.1731 20.0279 13.1568C20.0279 12.1393 19.201 11.3125 18.1848 11.3125Z" fill="#0A1F8F"/>
</svg>
