<svg width="200" height="100" viewBox="0 0 200 100" fill="none" xmlns="http://www.w3.org/2000/svg">
<path d="M75.7558 17.6433C76.0524 17.6433 76.3542 17.5997 76.6334 17.541L86.698 48.3615H86.7067C87.8246 51.8002 93.3829 54.4132 100.073 54.4132C106.766 54.4132 112.312 51.8011 113.442 48.3615H113.447L123.503 17.561C123.739 17.6047 124 17.6439 124.272 17.6439C126.228 17.6439 127.809 16.2198 127.809 14.4489C127.809 12.6982 126.232 11.2656 124.272 11.2656C122.324 11.2656 120.735 12.6941 120.735 14.4489C120.735 15.728 121.556 16.8139 122.752 17.3249L111.093 39.8424L112.962 9.50234C112.989 9.50234 113.015 9.50234 113.041 9.50234C114.989 9.50234 116.583 8.07819 116.583 6.319C116.583 4.56039 114.993 3.12402 113.041 3.12402C111.098 3.12402 109.499 4.56039 109.499 6.319C109.499 7.77108 110.586 8.98701 112.054 9.37584L104.303 39.0281L100.561 6.34692C102.281 6.11891 103.592 4.79276 103.592 3.18713C103.592 1.43201 102.015 0 100.059 0C98.0987 0 96.5173 1.42852 96.5173 3.18713C96.5173 4.79276 97.8447 6.13054 99.5607 6.34692L95.8318 38.9653L88.0903 9.37235C89.5794 8.99486 90.6799 7.77457 90.6799 6.31551C90.6799 4.5569 89.0907 3.12053 87.143 3.12053C85.1827 3.12053 83.5974 4.5569 83.5974 6.31551C83.5974 8.07062 85.1827 9.49885 87.143 9.49885C87.1604 9.49885 87.1692 9.49885 87.1914 9.49885L89.0646 39.8224L77.3799 17.2807C78.524 16.7496 79.2966 15.6829 79.2966 14.4396C79.2966 12.6889 77.7203 11.2563 75.7549 11.2563C73.8033 11.2563 72.2222 12.6848 72.2222 14.4396C72.2228 16.2183 73.7994 17.6433 75.7558 17.6433ZM100.006 45.7642C106.128 45.7642 111.084 47.1767 111.084 48.9077C111.084 50.6471 106.128 52.0477 100.006 52.0477C93.885 52.0477 88.9239 50.6509 88.9239 48.9077C88.9249 47.1767 93.885 45.7642 100.006 45.7642Z" fill="white"/>
<path d="M60.9326 67.3379C50.7847 67.3379 42.5581 74.7629 42.5581 83.667C42.5581 92.5828 50.7844 99.9999 60.9326 99.9999C71.0717 99.9999 79.2935 92.5793 79.2935 83.667C79.2935 74.7629 71.0711 67.3379 60.9326 67.3379ZM68.5647 93.1025C67.9973 93.8697 67.285 94.5545 66.4511 95.1048C65.093 96.0843 63.5435 96.6511 61.8973 96.7026C61.5871 96.734 61.2595 96.7654 60.9326 96.7654C60.5921 96.7654 60.2732 96.734 59.9505 96.7026C58.3042 96.6476 56.7676 96.0848 55.4054 95.1048C54.5714 94.5537 53.8552 93.8729 53.2917 93.1025C51.3837 90.7262 50.1873 87.3974 50.1873 83.6984C50.1873 80.2205 51.2527 77.0647 52.9513 74.7472C53.9072 73.2052 55.405 71.9847 57.2395 71.2692C57.253 71.2649 57.2656 71.257 57.2831 71.2492C57.3663 71.2178 57.4538 71.1863 57.5496 71.1584C57.7901 71.0677 58.0383 70.9932 58.2923 70.9226C59.1262 70.7024 60.017 70.5803 60.9342 70.5803C61.8514 70.5803 62.7377 70.7024 63.5713 70.9226C63.8292 70.9932 64.0735 71.0642 64.3226 71.1549C64.4059 71.1907 64.4934 71.2221 64.5892 71.2492C64.5979 71.2649 64.6154 71.2649 64.6328 71.2692C66.4495 71.9855 67.9689 73.2052 68.9123 74.7472C70.6235 77.0807 71.6762 80.2321 71.6762 83.6984C71.6691 87.3968 70.4776 90.7296 68.5647 93.1025Z" fill="white"/>
<path d="M115.679 87.0699H113.138V91.6734C113.059 94.4315 110.566 96.6505 107.488 96.6505C107.474 96.6505 107.462 96.6461 107.453 96.6461V96.654H99.6629H96.7156V70.7888H101.637V68.4869H96.7156H96.1744H83.8916V70.7888H88.8169V96.6557H83.8916V98.9614H113.138H115.304H115.505H115.679V98.9535H115.706V91.4299H115.679V87.0699H115.679Z" fill="white"/>
<path d="M154.488 68.4946H154.457H154.286H146.414H121.044V70.8003H125.87V96.6707H121.044V98.9685V98.9763H146.414H152.094H154.287H154.457H154.488H154.672V91.4612V88.0068H152.095V91.6386C152.069 94.4247 149.55 96.6789 146.445 96.6789C146.428 96.6789 146.423 96.6789 146.414 96.6789H137.293H133.874H133.773V84.2456V83.8367H136.337C136.363 83.8367 136.38 83.8367 136.403 83.8367H137.831C140.119 83.8602 141.974 85.5368 141.974 87.5985C141.974 87.6343 141.974 87.6613 141.97 87.6814H141.974V88.8816V89.3655H144.301V89.0575V83.8367V83.8166V81.9478V81.94V76.7147V76.6124H141.978V78.0915H141.973C141.973 78.1194 141.978 78.1508 141.978 78.1744C141.978 80.2398 140.122 81.7117 137.83 81.7352H136.337H134.743H133.773V70.8046H133.874H141.162C141.197 70.8046 141.236 70.8046 141.271 70.8046H146.467C149.563 70.8203 152.065 73.0672 152.091 75.8411V78.9768H154.667V76.022V68.5103V68.4981H154.488V68.4946H154.488Z" fill="white"/>
<path d="M198.353 96.765C195.899 96.71 195.322 96.0292 193.427 94.0618L182.236 81.5102L189.641 73.5425V73.5469C191.628 71.4972 192.165 70.7887 194.723 70.7529H196.304H196.657V68.5261H196.304H189.03H188.689H183.349H183.009V70.7529H183.349H186.004V70.7608C186.012 70.7608 186.012 70.7608 186.012 70.7608C186.659 70.7608 187.178 71.2212 187.178 71.7996C187.178 72.032 187.094 72.2364 186.963 72.4095L180.396 79.4526L175.244 73.6725L174.17 72.445C174.008 72.2676 173.899 72.0395 173.899 71.7958C173.899 71.2212 174.419 70.757 175.056 70.7492H177.994V68.5223H172.776H165.148H160.926V70.7492H161.738C163.913 70.8399 164.541 71.5085 166.254 73.2793L176.161 84.3949L167.241 93.9874V93.9673C165.245 96.0249 164.703 96.7176 162.141 96.7612H160.582H160.059V98.9802H160.582H169.027H169.555H174.122H174.654V96.7612H174.122H171.061H171.058C170.42 96.7612 169.892 96.2974 169.892 95.7067C169.892 95.463 169.993 95.2385 170.159 95.0611L178.08 86.5347L184.66 93.9283L185.664 95.0535C185.822 95.2388 185.931 95.4624 185.931 95.707C185.931 96.2854 185.407 96.7615 184.761 96.7615C184.761 96.7615 184.761 96.7615 184.752 96.7615H181.595V98.9805H181.621H200V96.7615H198.353V96.765H198.353Z" fill="white"/>
<path d="M36.7654 96.62L34.5298 90.7613C33.4777 88.1605 32.7393 86.98 31.1065 85.6382C30.0283 84.7689 28.5256 84.3592 27.4079 84.0683C31.569 83.4742 34.7393 80.2199 34.7393 76.3095C34.7393 71.9692 30.8399 68.4482 26.024 68.4482C25.9756 68.4482 25.9233 68.4561 25.8582 68.4561V68.4485H12.7414H4.83398H0.0784255V70.7425H4.83398V96.6365H0V98.9422H12.6717H17.6015V96.636H12.7414V84.1943H16.5139C16.6362 84.1986 16.7495 84.2021 16.8676 84.21H17.6315C18.8366 84.2492 19.8846 84.4066 20.8192 84.6468C21.6929 84.8512 22.6227 85.1185 23.2343 85.4768C24.064 85.9645 24.9542 86.6412 25.7365 87.8453C25.9372 88.1678 26.1205 88.4909 26.2951 88.8131C27.732 91.2522 28.5959 94.6325 29.5525 98.9212H35.3686V98.9291H40.6041V96.6191H36.7651V96.62H36.7654ZM20.9984 81.8808H12.7585V70.726H20.9935C24.5391 70.8481 27.3682 73.0787 27.3682 76.3016C27.3682 79.5245 24.5398 81.7391 20.9984 81.8808Z" fill="white"/>
</svg>
